# xmcd
#
# Track frame offsets:
#	150
#	16009
#	31175
#	42367
#	50585
#	68055
#	79130
#	91617
#	105175
#	121112
#
# Disc length: 1813 seconds
#
# Revision: 2
# Processed by: cddbd v1.5.2PL0 Copyright (c) Steve Scherf et al.
# Submitted via: audiograbber 1.83.01
#
DISCID=6607130a
DTITLE=Byrds - Nashville West
DYEAR=1900
DGENRE=Oldies
TTITLE0=Hickory Wind
TTITLE1=Old Blue
TTITLE2=Nashville West
TTITLE3=Old John Robertson
TTITLE4=Drug Store Truck Drivin' Man
TTITLE5=Satisfied Mind
TTITLE6=Life In Prison
TTITLE7=America's Great National Pastime
TTITLE8=Yesterday's Train
TTITLE9=Truck Stop Girl
EXTD=
EXTT0=
EXTT1=
EXTT2=
EXTT3=
EXTT4=
EXTT5=
EXTT6=
EXTT7=
EXTT8=
EXTT9=
PLAYORDER=
